<svg xmlns="http://www.w3.org/2000/svg" xmlns:xlink="http://www.w3.org/1999/xlink" version="1.1" x="0px" y="0px" viewBox="0 0 90 90" enable-background="new 0 0 90 90" xml:space="preserve"><g><path fill="#000000" d="M46.2,4.9C24.1,4.9,6.1,22.9,6.1,45c0,22.1,17.9,40.1,40.1,40.1c22.1,0,40.1-17.9,40.1-40.1   C86.2,22.9,68.3,4.9,46.2,4.9z M62.4,52.2V58H45.9V64h-9.6V58h-6.9v-5.7h6.9v-4.6h-6.9v-5.7h6.9v-18h15.3c1.8,0,3.5,0.2,5.2,0.7   c1.5,0.5,2.9,1.2,4.1,2.2c2,1.7,3.8,4.5,3.8,8.9c0,4.4-1.8,7.2-3.8,8.9c-1.2,1-2.6,1.8-4.1,2.2c-1.7,0.5-3.3,0.7-5.2,0.7h-5.7v4.6   H62.4z"></path><path fill="#000000" d="M52.4,41.3c0.9-0.5,2.2-1.7,2.2-4.5c0-2.8-1.4-4.1-2.2-4.5c-0.5-0.3-1.2-0.4-1.7-0.5   c-0.5-0.1-1-0.1-1.5-0.1h-3.2v10.3h3.2C50.2,41.9,51.6,41.7,52.4,41.3z"></path></g></svg>